<svg xmlns="http://www.w3.org/2000/svg" viewBox="0 0 512 512">
  <defs>
    <linearGradient id="bg" x1="0%" y1="0%" x2="100%" y2="100%">
      <stop offset="0%" style="stop-color:#ff9a3c"/>
      <stop offset="100%" style="stop-color:#ff5f1f"/>
    </linearGradient>
  </defs>
  <!-- Background -->
  <rect width="512" height="512" rx="110" fill="url(#bg)"/>
  <!-- Document shape -->
  <rect x="140" y="100" width="200" height="260" rx="16" fill="white" opacity="0.95"/>
  <!-- Folded corner -->
  <path d="M300 100 L340 140 L300 140 Z" fill="#ff9a3c"/>
  <path d="M300 100 L340 140 L300 140 Z" fill="rgba(0,0,0,0.15)"/>
  <!-- Lines representing text -->
  <rect x="168" y="170" width="144" height="12" rx="6" fill="#ff9a3c" opacity="0.9"/>
  <rect x="168" y="198" width="120" height="10" rx="5" fill="#0c0c0f" opacity="0.2"/>
  <rect x="168" y="222" width="136" height="10" rx="5" fill="#0c0c0f" opacity="0.2"/>
  <rect x="168" y="246" width="108" height="10" rx="5" fill="#0c0c0f" opacity="0.2"/>
  <!-- Spark/summary icon at bottom -->
  <circle cx="256" cy="340" r="28" fill="#ff9a3c" opacity="0.15"/>
  <path d="M256 318 L262 336 L280 336 L266 347 L271 365 L256 354 L241 365 L246 347 L232 336 L250 336 Z" fill="#ff5f1f"/>
</svg>
